General
Complete name                    : The.Color.Purple.1985.720p.BRrip.H264.AC3 - CODY.mp4
Format                           : MPEG-4
Format profile                   : Base Media
Codec ID                         : isom
File size                        : 2.79 GiB
Duration                         : 2h 33mn
Overall bit rate                 : 2 600 Kbps
Encoded date                     : UTC 2011-02-26 23:44:19
Tagged date                      : UTC 2011-02-26 23:44:19
Writing application              : My MP4Box GUI 0.5.5.4

Video
ID                               : 1
Format                           : AVC
Format/Info                      : Advanced Video Codec
Format profile                   : High@L3.1
Format settings, CABAC           : Yes
Format settings, ReFrames        : 3 frames
Codec ID                         : avc1
Codec ID/Info                    : Advanced Video Coding
Duration                         : 2h 33mn
Bit rate mode                    : Variable
Bit rate                         : 2 150 Kbps
Maximum bit rate                 : 6 047 Kbps
Width                            : 1 280 pixels
Height                           : 720 pixels
Display aspect ratio             : 16:9
Frame rate mode                  : Constant
Frame rate                       : 23.976 fps
Color space                      : YUV
Chroma subsampling               : 4:2:0
Bit depth                        : 8 bits
Scan type                        : Progressive
Bits/(Pixel*Frame)               : 0.097
Stream size                      : 2.31 GiB (83%)
Title                            : Imported with GPAC 0.4.6-DEV (internal rev. 5)
Writing library                  : x264 core 65 r999kMod cc51047
Encoding settings                : cabac=1 / ref=3 / deblock=1:-2:-1 / analyse=0x3:0x133 / me=umh / subme=7 / psy_rd=1.0:0.0 / mixed_ref=1 / me_range=16 

/ chroma_me=1 / trellis=2 / 8x8dct=1 / cqm=0 / deadzone=21,11 / chroma_qp_offset=-2 / threads=2 / thread_queue=2 / nr=0 / decimate=0 / mbaff=0 / 

bframes=3 / b_pyramid=0 / b_adapt=1 / b_bias=0 / direct=3 / wpredb=1 / keyint=250 / keyint_min=25 / scenecut=40(pre) / rc=2pass / bitrate=2150 / 

ratetol=1.0 / qcomp=0.60 / qpmin=10 / qpmax=51 / qpstep=4 / cplxblur=20.0 / qblur=0.5 / ip_ratio=1.40 / pb_ratio=1.30 / aq=1:1.00
Encoded date                     : UTC 2011-02-26 23:44:19
Tagged date                      : UTC 2011-02-26 23:50:13

Audio
ID                               : 2
Format                           : AC-3
Format/Info                      : Audio Coding 3
Mode extension                   : CM (complete main)
Codec ID                         : ac-3
Duration                         : 2h 33mn
Bit rate mode                    : Constant
Bit rate                         : 448 Kbps
Channel(s)                       : 6 channels
Channel positions                : Front: L C R, Side: L R, LFE
Sampling rate                    : 48.0 KHz
Bit depth                        : 16 bits
Compression mode                 : Lossy
Stream size                      : 493 MiB (17%)
Title                            : Imported with GPAC 0.4.6-DEV (internal rev. 5)
Encoded date                     : UTC 2011-02-26 23:48:59
Tagged date                      : UTC 2011-02-26 23:




IMDB link                        :  http://www.imdb.com/title/tt0088939/



Subtitles included               :  Romanian, English



Please seed at least 1,5:1 !

This way this torrent has a chance and will never die !         